{"title":"Navya Star Plus First 100 Episodes","uid":6650569,"size":9207450806,"categoryP":"video","categoryS":"tv_shows","magnet":"?xt=urn:btih:31d56942411c02e58e9f288de49bfb0293bb5762&amp;dn=Navya+Star+Plus+First+100+Episodes&amp;tr=udp%3A%2F%2Ftracker.openbittorrent.com%3A80&amp;tr=udp%3A%2F%2Fopen.demonii.com%3A1337&amp;tr=udp%3A%2F%2Ftracker.coppersurfer.tk%3A6969&amp;tr=udp%3A%2F%2Fexodus.desync.com%3A6969","seeders":0,"leechers":1,"uploader":"harrylala","files":101,"time":1315134332,"description":"Here is the complete collection of navya's first 100 Episodes.....\n\nDates of airing ranges between 4th april to 18th august.....\n\nSize : 70 to 80MB per episode... First five episodes have runtime equal to 29 minutes. So, the size of those episodes is about 110MB... The remaining episodes will have a size equal to 80 Mb except the maha episodes whose runtime is 50 minutes.....\n\nVideo format : wmv\n\n\n\nMedia File Info :\n\n\n\nGeneral\nComplete name                    : Navya\nFormat                           : Windows Media\nFile size                        : 78.2 MiB\nDuration                         : 21mn 12s\nOverall bit rate mode            : Constant\nOverall bit rate                 : 516 Kbps\nMaximum Overall bit rate         : 521 Kbps\nEncoded date                     : UTC 2011-05-03 18:44:48.515\n\nVideo\nID                               : 2\nFormat                           : VC-1\nFormat profile                   : MP\nCodec ID                         : WMV3\nCodec ID/Info                    : Windows Media Video 9\nCodec ID/Hint                    : WMV3\nDescription of the codec         : Windows Media Video 9\nDuration                         : 21mn 12s\nBit rate mode                    : Constant\nBit rate                         : 448 Kbps\nWidth                            : 320 pixels\nHeight                           : 240 pixels\nDisplay aspect ratio             : 4:3\nFrame rate                       : 25.000 fps\nBit depth                        : 8 bits\nScan type                        : Progressive\nCompression mode                 : Lossy\nBits/(Pixel*Frame)               : 0.233\nStream size                      : 67.9 MiB (87%)\nLanguage                         : Hindi\n\nAudio\nID                               : 1\nFormat                           : WMA\nFormat version                   : Version 2\nCodec ID                         : 161\nCodec ID/Info                    : Windows Media Audio\nDescription of the codec         : Windows Media Audio 9.2 -  64 kbps, 44 kHz, stereo (A/V) 1-pass CBR\nDuration                         : 21mn 12s\nBit rate mode                    : Constant\nBit rate                         : 64.0 Kbps\nChannel(s)                       : 2 channels\nSampling rate                    : 44.1 KHz\nBit depth                        : 16 bits\nStream size                      : 9.71 MiB (12%)\nLanguage                         : Hindi\n","torrent":{"xt":"urn:btih:31d56942411c02e58e9f288de49bfb0293bb5762","amp;dn":"Navya+Star+Plus+First+100+Episodes","amp;tr":["udp%3A%2F%2Ftracker.openbittorrent.com%3A80","udp%3A%2F%2Fopen.demonii.com%3A1337","udp%3A%2F%2Ftracker.coppersurfer.tk%3A6969","udp%3A%2F%2Fexodus.desync.com%3A6969"],"infoHash":"31d56942411c02e58e9f288de49bfb0293bb5762","infoHashBuffer":{"type":"Buffer","data":[49,213,105,66,65,28,2,229,142,159,40,141,228,155,251,2,147,187,87,98]},"announce":[],"urlList":[]}}